<?xml version="1.0" encoding="iso-8859-1"?>
<!-- Generator: Adobe Illustrator 29.5.0, SVG Export Plug-In . SVG Version: 9.03 Build 0)  -->
<svg version="1.1" id="Capa_1" xmlns="http://www.w3.org/2000/svg" xmlns:xlink="http://www.w3.org/1999/xlink" x="0px" y="0px"
	 viewBox="0 0 1440 818" style="enable-background:new 0 0 1440 818;" xml:space="preserve">
<g>
	<g>
		<g>
			
				<linearGradient id="SVGID_1_" gradientUnits="userSpaceOnUse" x1="720.0005" y1="151.786" x2="720.0005" y2="771.179" gradientTransform="matrix(1 0 0 -1 0 820)">
				<stop  offset="0.768" style="stop-color:#99B1FF;stop-opacity:0"/>
				<stop  offset="1" style="stop-color:#194FFF"/>
			</linearGradient>
			<path style="fill:url(#SVGID_1_);fill-opacity:0.8;" d="M997.687,1584.53c171.841-64.241,316.089-186.082,408.163-344.76
				c92.08-158.673,126.29-344.366,96.8-525.436c-29.482-181.071-120.838-346.316-258.5-467.58
				C1106.485,125.491,931.033,55.711,747.688,49.304C369.616,36.094,34.863,291.793-51.849,660.023
				C-93.9,838.596-72.733,1026.224,8.045,1190.94c80.78,164.712,216.171,296.32,383.106,372.4l2.701-5.92
				C-1.382,1377.292-175.76,910.869,4.368,515.635C136.283,226.189,429.566,44.707,747.461,55.813
				c181.838,6.352,355.847,75.559,492.379,195.827c136.531,120.27,227.14,284.157,256.39,463.74
				c29.24,179.583-4.69,363.748-96.01,521.119c-91.316,157.378-234.381,278.219-404.813,341.93l2.28,6.1V1584.53z"/>
		</g>
		
			<linearGradient id="SVGID_00000155115247950322404980000005093983567390401173_" gradientUnits="userSpaceOnUse" x1="720.0005" y1="3786.04" x2="720.0005" y2="-125.1531" gradientTransform="matrix(1 0 0 -1 0 820)">
			<stop  offset="0" style="stop-color:#4D76FF"/>
			<stop  offset="0.829" style="stop-color:#003BFF;stop-opacity:0"/>
		</linearGradient>
		<path style="fill:url(#SVGID_00000155115247950322404980000005093983567390401173_);" d="M997.687,1584.53
			c171.841-64.241,316.089-186.082,408.163-344.76c92.08-158.673,126.29-344.366,96.8-525.436
			c-29.482-181.071-120.838-346.316-258.5-467.58C1106.485,125.491,931.033,55.711,747.688,49.304
			C369.616,36.094,34.863,291.793-51.849,660.023C-93.9,838.596-72.733,1026.224,8.045,1190.94
			c80.78,164.712,216.171,296.32,383.106,372.4l85.092-186.71C221.078,1260.343,83.594,980,147.871,707.053
			c64.275-272.949,312.41-462.483,592.653-452.691c135.903,4.749,265.954,56.473,367.996,146.359
			c102.041,89.887,169.76,212.374,191.62,346.591c21.855,134.218-3.506,271.862-71.76,389.478
			c-68.249,117.618-175.171,207.932-302.546,255.55L997.687,1584.53z"/>
		<g>
			
				<radialGradient id="SVGID_00000031196481730578593490000018105057430967309721_" cx="220.0469" cy="909.9643" r="1" gradientTransform="matrix(0 1917.42 6160.4702 0 -5605088 -422205.0938)" gradientUnits="userSpaceOnUse">
				<stop  offset="0" style="stop-color:#003BFF"/>
				<stop  offset="0.276" style="stop-color:#003BFF;stop-opacity:0"/>
			</radialGradient>
			<path style="fill:url(#SVGID_00000031196481730578593490000018105057430967309721_);fill-opacity:0.2;" d="M997.687,1584.53
				c171.841-64.241,316.089-186.082,408.163-344.76c92.08-158.673,126.29-344.366,96.8-525.436
				c-29.482-181.071-120.838-346.316-258.5-467.58C1106.485,125.491,931.033,55.711,747.688,49.304
				C369.616,36.094,34.863,291.793-51.849,660.023C-93.9,838.596-72.733,1026.224,8.045,1190.94
				c80.78,164.712,216.171,296.32,383.106,372.4l62.577-137.3c-135.168-61.605-244.796-168.171-310.205-301.54
				C78.116,991.127,60.977,839.202,95.026,694.609c81.281-345.164,426.984-559.084,772.148-477.802
				c102.779,24.203,198.003,73.38,277.236,143.175c111.465,98.19,185.436,231.99,209.31,378.604
				c23.88,146.615-3.82,296.974-78.38,425.454c-74.56,128.48-191.35,227.14-330.494,279.15L997.687,1584.53L997.687,1584.53z"/>
		</g>
		
			<radialGradient id="SVGID_00000056388754717204914030000004825186174583261333_" cx="220.0567" cy="909.8613" r="1" gradientTransform="matrix(0 1585.92 1585.92 0 -1442247.25 -348943.5938)" gradientUnits="userSpaceOnUse">
			<stop  offset="0" style="stop-color:#FFFFFF"/>
			<stop  offset="0.825" style="stop-color:#FFFFFF;stop-opacity:0"/>
		</radialGradient>
		
			<circle style="fill:url(#SVGID_00000056388754717204914030000004825186174583261333_);fill-opacity:0.01;" cx="720" cy="841.783" r="792.961"/>
		
			<radialGradient id="SVGID_00000048482961390619075680000008342843627543791499_" cx="220.0469" cy="909.9643" r="1" gradientTransform="matrix(0 1917.42 6160.4702 0 -5605088 -422205.0938)" gradientUnits="userSpaceOnUse">
			<stop  offset="0" style="stop-color:#003BFF"/>
			<stop  offset="0.24" style="stop-color:#003BFF;stop-opacity:0"/>
		</radialGradient>
		<path style="fill:url(#SVGID_00000048482961390619075680000008342843627543791499_);fill-opacity:0.2;" d="M997.687,1584.53
			c171.841-64.241,316.089-186.082,408.163-344.76c92.08-158.673,126.29-344.366,96.8-525.436
			c-29.482-181.071-120.838-346.316-258.5-467.58C1106.485,125.491,931.033,55.711,747.688,49.304
			C369.616,36.094,34.863,291.793-51.849,660.023C-93.9,838.596-72.733,1026.224,8.045,1190.94
			c80.78,164.712,216.171,296.32,383.106,372.4l86.864-190.6c-122.84-55.983-222.468-152.826-281.91-274.03
			C73.534,848.773,144.584,547.057,365.804,378.078c107.281-81.945,239.656-124.157,374.57-119.444
			c134.913,4.712,264.019,56.06,365.316,145.294c101.301,89.233,168.529,210.829,190.23,344.071
			c21.696,133.243-3.477,269.887-71.23,386.651c-67.759,116.759-173.904,206.414-300.352,253.69L997.687,1584.53L997.687,1584.53z"
			/>
		
			<radialGradient id="SVGID_00000142170019728469708420000005142760216579077010_" cx="220.0567" cy="909.8613" r="1" gradientTransform="matrix(0 1585.92 1585.92 0 -1442247.25 -348943.5938)" gradientUnits="userSpaceOnUse">
			<stop  offset="0" style="stop-color:#FFFFFF"/>
			<stop  offset="0.484" style="stop-color:#FFFFFF;stop-opacity:0"/>
		</radialGradient>
		
			<circle style="fill:none;stroke:url(#SVGID_00000142170019728469708420000005142760216579077010_);stroke-width:1.379;stroke-opacity:0.05;" cx="720" cy="841.783" r="792.272"/>
		<g>
			
				<radialGradient id="SVGID_00000112630242865475158830000017891460392618660250_" cx="220.0567" cy="909.8613" r="1" gradientTransform="matrix(0 1585.92 1585.92 0 -1442247.25 -348943.5938)" gradientUnits="userSpaceOnUse">
				<stop  offset="0" style="stop-color:#1A4FFF"/>
				<stop  offset="0.543" style="stop-color:#1A4FFF;stop-opacity:0"/>
			</radialGradient>
			
				<circle style="fill:none;stroke:url(#SVGID_00000112630242865475158830000017891460392618660250_);stroke-width:2.759;stroke-opacity:0.5;" cx="720" cy="841.783" r="791.582"/>
		</g>
		<g>
			
				<radialGradient id="SVGID_00000050626135722747813570000000963146594721127044_" cx="220.0567" cy="909.8613" r="1" gradientTransform="matrix(0 1585.92 1585.92 0 -1442247.25 -348943.5938)" gradientUnits="userSpaceOnUse">
				<stop  offset="0" style="stop-color:#B3C4FF"/>
				<stop  offset="0.543" style="stop-color:#B2C4FF;stop-opacity:0"/>
			</radialGradient>
			
				<circle style="fill:none;stroke:url(#SVGID_00000050626135722747813570000000963146594721127044_);stroke-width:1.379;stroke-opacity:0.6;" cx="720" cy="841.783" r="792.272"/>
		</g>
		
			<radialGradient id="SVGID_00000114786925873402431550000009368639302867289528_" cx="220.0567" cy="909.8613" r="1" gradientTransform="matrix(0 1585.92 1585.92 0 -1442247.25 -348943.5938)" gradientUnits="userSpaceOnUse">
			<stop  offset="0" style="stop-color:#1A4FFF"/>
			<stop  offset="0.484" style="stop-color:#1A4FFF;stop-opacity:0"/>
		</radialGradient>
		
			<circle style="fill:none;stroke:url(#SVGID_00000114786925873402431550000009368639302867289528_);stroke-width:2.759;stroke-opacity:0.2;" cx="720" cy="841.783" r="791.582"/>
		
			<radialGradient id="SVGID_00000047042052385736851620000006054204029682393505_" cx="220.0567" cy="909.8613" r="1" gradientTransform="matrix(0 1585.92 1585.92 0 -1442247.25 -348943.5938)" gradientUnits="userSpaceOnUse">
			<stop  offset="0" style="stop-color:#99B1FF"/>
			<stop  offset="0.161" style="stop-color:#99B1FF;stop-opacity:0"/>
		</radialGradient>
		
			<circle style="fill:none;stroke:url(#SVGID_00000047042052385736851620000006054204029682393505_);stroke-width:1.379;stroke-opacity:0.2;" cx="720" cy="841.783" r="792.272"/>
		<g>
			
				<radialGradient id="SVGID_00000147900015521201327130000011505157250810126760_" cx="220.0567" cy="909.8613" r="1" gradientTransform="matrix(0 1585.92 1585.92 0 -1442247.25 -348943.5938)" gradientUnits="userSpaceOnUse">
				<stop  offset="0" style="stop-color:#E6EBFF"/>
				<stop  offset="0.353" style="stop-color:#00020F;stop-opacity:0"/>
			</radialGradient>
			
				<circle style="fill:none;stroke:url(#SVGID_00000147900015521201327130000011505157250810126760_);stroke-width:2.759;stroke-opacity:0.8;" cx="720" cy="841.783" r="791.582"/>
		</g>
		
			<radialGradient id="SVGID_00000001632215795932625910000017465151406029359806_" cx="220.0567" cy="909.8613" r="1" gradientTransform="matrix(0 1585.92 1585.92 0 -1442247.25 -348943.5938)" gradientUnits="userSpaceOnUse">
			<stop  offset="0" style="stop-color:#B3C4FF"/>
			<stop  offset="0.161" style="stop-color:#00020F;stop-opacity:0"/>
		</radialGradient>
		
			<circle style="fill:none;stroke:url(#SVGID_00000001632215795932625910000017465151406029359806_);stroke-width:2.759;stroke-opacity:0.2;" cx="720" cy="841.783" r="791.582"/>
		<g>
			
				<radialGradient id="SVGID_00000173137985102101148600000002973738711869983387_" cx="220.0567" cy="909.8613" r="1" gradientTransform="matrix(0 1585.92 1585.92 0 -1442247.25 -348943.5938)" gradientUnits="userSpaceOnUse">
				<stop  offset="0" style="stop-color:#B3C4FF"/>
				<stop  offset="0.28" style="stop-color:#00020F;stop-opacity:0"/>
			</radialGradient>
			
				<circle style="fill:none;stroke:url(#SVGID_00000173137985102101148600000002973738711869983387_);stroke-width:2.759;stroke-opacity:0.6;" cx="720" cy="841.783" r="791.582"/>
		</g>
		<g>
			
				<radialGradient id="SVGID_00000124129295182121347170000007360047511090131354_" cx="220.0469" cy="909.9643" r="1" gradientTransform="matrix(0 1917.42 6160.4702 0 -5605088 -422205.0938)" gradientUnits="userSpaceOnUse">
				<stop  offset="0" style="stop-color:#FFFFFF"/>
				<stop  offset="0.276" style="stop-color:#FFFFFF;stop-opacity:0"/>
			</radialGradient>
			<path style="fill:url(#SVGID_00000124129295182121347170000007360047511090131354_);fill-opacity:0.2;" d="M997.687,1584.53
				c171.841-64.241,316.089-186.082,408.163-344.76c92.08-158.673,126.29-344.366,96.8-525.436
				c-29.482-181.071-120.838-346.316-258.5-467.58C1106.485,125.491,931.033,55.711,747.688,49.304
				C369.616,36.094,34.863,291.793-51.849,660.023C-93.9,838.596-72.733,1026.224,8.045,1190.94
				c80.78,164.712,216.171,296.32,383.106,372.4l7.401-16.24c-163.18-74.366-295.525-203.013-374.485-364.02
				C-164.424,798.724-5.644,334.34,378.712,145.848c114.445-56.125,240.965-83.159,368.353-78.709
				c179.218,6.261,350.721,74.47,485.285,193.006c134.568,118.533,223.87,280.06,252.69,457.057
				c28.819,176.997-4.62,358.51-94.62,513.618c-90.01,155.102-231.011,274.198-398.982,337L997.687,1584.53L997.687,1584.53z"/>
		</g>
		<g>
			
				<linearGradient id="SVGID_00000013911243815109998280000017043951933054188731_" gradientUnits="userSpaceOnUse" x1="720.0005" y1="1288.917" x2="720.0005" y2="-125.1531" gradientTransform="matrix(1 0 0 -1 0 820)">
				<stop  offset="0" style="stop-color:#E6EBFF"/>
				<stop  offset="0.403" style="stop-color:#003BFF;stop-opacity:0"/>
			</linearGradient>
			<path style="fill:url(#SVGID_00000013911243815109998280000017043951933054188731_);fill-opacity:0.5;" d="M997.687,1584.53
				c171.841-64.241,316.089-186.082,408.163-344.76c92.08-158.673,126.29-344.366,96.8-525.436
				c-29.482-181.071-120.838-346.316-258.5-467.58C1106.485,125.491,931.033,55.711,747.688,49.304
				C369.616,36.094,34.863,291.793-51.849,660.023C-93.9,838.596-72.733,1026.224,8.045,1190.94
				c80.78,164.712,216.171,296.32,383.106,372.4l61.736-135.46c-135.596-61.798-245.571-168.699-311.186-302.49
				C6.401,849.498,84.829,516.45,329.023,329.924C573.219,143.4,915.168,155.348,1145.75,358.46
				c111.818,98.499,186.023,232.722,209.97,379.8c23.952,147.078-3.832,297.911-78.62,426.8
				c-74.798,128.884-191.965,227.85-331.543,280.04L997.687,1584.53z"/>
		</g>
		<g>
			
				<linearGradient id="SVGID_00000059991152804189423200000000967327254108277924_" gradientUnits="userSpaceOnUse" x1="720.0005" y1="977.781" x2="720.0005" y2="-125.1531" gradientTransform="matrix(1 0 0 -1 0 820)">
				<stop  offset="0" style="stop-color:#99B1FF"/>
				<stop  offset="0.0238" style="stop-color:#7F9DFF;stop-opacity:0.9229"/>
				<stop  offset="0.0658" style="stop-color:#597FFF;stop-opacity:0.787"/>
				<stop  offset="0.1094" style="stop-color:#3867FF;stop-opacity:0.646"/>
				<stop  offset="0.1543" style="stop-color:#2053FF;stop-opacity:0.5007"/>
				<stop  offset="0.201" style="stop-color:#0E46FF;stop-opacity:0.3494"/>
				<stop  offset="0.2509" style="stop-color:#033EFF;stop-opacity:0.1882"/>
				<stop  offset="0.309" style="stop-color:#003BFF;stop-opacity:0"/>
			</linearGradient>
			<path style="fill:url(#SVGID_00000059991152804189423200000000967327254108277924_);fill-opacity:0.5;" d="M997.687,1584.53
				c171.841-64.241,316.089-186.082,408.163-344.76c92.08-158.673,126.29-344.366,96.8-525.436
				c-29.482-181.071-120.838-346.316-258.5-467.58C1106.485,125.491,931.033,55.711,747.688,49.304
				C369.616,36.094,34.863,291.793-51.849,660.023C-93.9,838.596-72.733,1026.224,8.045,1190.94
				c80.78,164.712,216.171,296.32,383.106,372.4l28.837-63.27C56.426,1334.375-103.976,905.327,61.719,541.765
				c49.337-108.253,124.609-202.668,219.15-274.883C598.377,24.355,1052.374,85.139,1294.901,402.647
				s181.743,771.505-135.765,1014.032c-56.545,43.191-119.152,77.804-185.8,102.721L997.687,1584.53L997.687,1584.53z"/>
		</g>
		<g>
			
				<radialGradient id="SVGID_00000131360990348745394860000006301328306480401808_" cx="219.8418" cy="910.2076" r="1" gradientTransform="matrix(19.0551 -611.4432 -1045.1426 -32.571 947827.625 164727.4062)" gradientUnits="userSpaceOnUse">
				<stop  offset="0.729" style="stop-color:#FFFFFF;stop-opacity:0"/>
				<stop  offset="1" style="stop-color:#FFFFFF;stop-opacity:0.02"/>
			</radialGradient>
			<path style="fill:url(#SVGID_00000131360990348745394860000006301328306480401808_);fill-opacity:0.5;" d="M997.687,1584.53
				c171.841-64.241,316.089-186.082,408.163-344.76c92.08-158.673,126.29-344.366,96.8-525.436
				c-29.482-181.071-120.838-346.316-258.5-467.58C1106.485,125.491,931.033,55.711,747.688,49.304
				C369.616,36.094,34.863,291.793-51.849,660.023C-93.9,838.596-72.733,1026.224,8.045,1190.94
				c80.78,164.712,216.171,296.32,383.106,372.4l7.413-16.26c-163.172-74.367-295.512-203.01-374.471-364.01
				C-164.394,798.731-5.624,334.364,378.715,145.877c114.443-56.125,240.962-83.16,368.349-78.709
				c179.211,6.261,350.707,74.468,485.266,192.999c277.476,244.418,343.653,650.808,158.06,970.633
				c-90,155.1-231,274.19-398.962,336.99L997.687,1584.53L997.687,1584.53z"/>
		</g>
		<g>
			
				<radialGradient id="SVGID_00000060032506581426885880000000615256166191079299_" cx="219.8981" cy="910.2351" r="1" gradientTransform="matrix(19.0546 -927.4363 -927.4363 -19.0546 840715 222261.9219)" gradientUnits="userSpaceOnUse">
				<stop  offset="0.893" style="stop-color:#FFFFFF;stop-opacity:0"/>
				<stop  offset="1" style="stop-color:#FFFFFF;stop-opacity:0.02"/>
			</radialGradient>
			<path style="fill:url(#SVGID_00000060032506581426885880000000615256166191079299_);fill-opacity:0.5;" d="M997.687,1584.53
				c171.841-64.241,316.089-186.082,408.163-344.76c92.08-158.673,126.29-344.366,96.8-525.436
				c-29.482-181.071-120.838-346.316-258.5-467.58C1106.485,125.491,931.033,55.711,747.688,49.304
				C369.616,36.094,34.863,291.793-51.849,660.023C-93.9,838.596-72.733,1026.224,8.045,1190.94
				c80.78,164.712,216.171,296.32,383.106,372.4l7.413-16.26c-163.172-74.367-295.512-203.01-374.471-364.01
				C-164.394,798.731-5.624,334.364,378.715,145.877c114.443-56.125,240.962-83.16,368.349-78.709
				c179.211,6.261,350.707,74.468,485.266,192.999c277.476,244.418,343.653,650.808,158.06,970.633
				c-90,155.1-231,274.19-398.962,336.99L997.687,1584.53L997.687,1584.53z"/>
		</g>
		<g>
			
				<linearGradient id="SVGID_00000100381015047350854960000007352066152841665421_" gradientUnits="userSpaceOnUse" x1="720.0005" y1="151.786" x2="720.0005" y2="771.179" gradientTransform="matrix(1 0 0 -1 0 820)">
				<stop  offset="0.768" style="stop-color:#99B1FF;stop-opacity:0"/>
				<stop  offset="1" style="stop-color:#194FFF"/>
			</linearGradient>
			<path style="fill:url(#SVGID_00000100381015047350854960000007352066152841665421_);fill-opacity:0.8;" d="M997.687,1584.53
				c171.841-64.241,316.089-186.082,408.163-344.76c92.08-158.673,126.29-344.366,96.8-525.436
				c-29.482-181.071-120.838-346.316-258.5-467.58C1106.485,125.491,931.033,55.711,747.688,49.304
				C369.616,36.094,34.863,291.793-51.849,660.023C-93.9,838.596-72.733,1026.224,8.045,1190.94
				c80.78,164.712,216.171,296.32,383.106,372.4l2.701-5.92C-1.382,1377.292-175.76,910.869,4.368,515.635
				C136.283,226.189,429.566,44.707,747.461,55.813c181.838,6.352,355.847,75.559,492.379,195.827
				c136.531,120.27,227.14,284.157,256.39,463.74c29.24,179.583-4.69,363.748-96.01,521.119
				c-91.316,157.378-234.381,278.219-404.813,341.93l2.28,6.1V1584.53z"/>
		</g>
		<g>
			
				<linearGradient id="SVGID_00000125571528263480828740000000023499841023683743_" gradientUnits="userSpaceOnUse" x1="720.0005" y1="151.786" x2="720.0005" y2="771.179" gradientTransform="matrix(1 0 0 -1 0 820)">
				<stop  offset="0.768" style="stop-color:#99B1FF;stop-opacity:0"/>
				<stop  offset="1" style="stop-color:#194FFF"/>
			</linearGradient>
			<path style="fill:url(#SVGID_00000125571528263480828740000000023499841023683743_);fill-opacity:0.8;" d="M997.687,1584.53
				c171.841-64.241,316.089-186.082,408.163-344.76c92.08-158.673,126.29-344.366,96.8-525.436
				c-29.482-181.071-120.838-346.316-258.5-467.58C1106.485,125.491,931.033,55.711,747.688,49.304
				C369.616,36.094,34.863,291.793-51.849,660.023C-93.9,838.596-72.733,1026.224,8.045,1190.94
				c80.78,164.712,216.171,296.32,383.106,372.4l2.701-5.92C-1.382,1377.292-175.76,910.869,4.368,515.635
				C136.283,226.189,429.566,44.707,747.461,55.813c181.838,6.352,355.847,75.559,492.379,195.827
				c136.531,120.27,227.14,284.157,256.39,463.74c29.24,179.583-4.69,363.748-96.01,521.119
				c-91.316,157.378-234.381,278.219-404.813,341.93l2.28,6.1V1584.53z"/>
		</g>
		<g>
			
				<radialGradient id="SVGID_00000152244588610576447150000013784733694835017371_" cx="220.0567" cy="909.8613" r="1" gradientTransform="matrix(0 1585.92 1585.92 0 -1442247.25 -348943.5938)" gradientUnits="userSpaceOnUse">
				<stop  offset="0" style="stop-color:#B3C4FF"/>
				<stop  offset="0.28" style="stop-color:#00020F;stop-opacity:0"/>
			</radialGradient>
			
				<circle style="fill:none;stroke:url(#SVGID_00000152244588610576447150000013784733694835017371_);stroke-width:1.161;stroke-opacity:0.6;" cx="720" cy="841.783" r="792.381"/>
		</g>
		<g>
			
				<linearGradient id="SVGID_00000158004305153210970630000014500471820934382498_" gradientUnits="userSpaceOnUse" x1="719.9854" y1="985.036" x2="719.9854" y2="-125.903" gradientTransform="matrix(1 0 0 -1 0 820)">
				<stop  offset="0.095" style="stop-color:#FFFFFF"/>
				<stop  offset="0.25" style="stop-color:#FFFFFF;stop-opacity:0"/>
			</linearGradient>
			<path style="fill:url(#SVGID_00000158004305153210970630000014500471820934382498_);fill-opacity:0.5;" d="M999.703,1589.92
				c173.087-64.71,318.381-187.433,411.127-347.26c191.245-329.577,123.05-748.352-162.88-1000.224
				C962.017-9.436,537.981-24.251,235.167,207.051C-67.648,438.352-164.904,851.349,2.877,1193.47
				c81.364,165.911,217.739,298.477,385.888,375.11l7.798-17.11c-164.188-74.832-297.352-204.276-376.802-366.28
				c-163.832-334.066-68.866-737.341,226.82-963.196C542.266-3.862,956.318,10.605,1235.52,256.546
				c135.398,119.268,225.252,281.794,254.25,459.886c29,178.091-4.64,360.728-95.21,516.788
				c-90.558,156.066-232.431,275.903-401.442,339.09L999.703,1589.92L999.703,1589.92z"/>
		</g>
		<g>
			
				<linearGradient id="SVGID_00000134226702134284123230000000139203661667277232_" gradientUnits="userSpaceOnUse" x1="719.9989" y1="991.826" x2="719.9989" y2="-126.606" gradientTransform="matrix(1 0 0 -1 0 820)">
				<stop  offset="0.095" style="stop-color:#99B1FF"/>
				<stop  offset="0.309" style="stop-color:#003BFF;stop-opacity:0"/>
			</linearGradient>
			<path style="fill:url(#SVGID_00000134226702134284123230000000139203661667277232_);fill-opacity:0.5;" d="M1001.59,1594.97
				c174.252-65.149,320.525-188.699,413.9-349.6c93.37-160.907,128.06-349.21,98.16-532.826
				C1451.992,333.915,1131.46,51.566,748.077,38.17C304.254,22.663-68.107,369.881-83.614,813.704
				c-11.357,325.032,174.2,624.901,470.145,759.776l12.913-28.33c-162.725-74.167-294.702-202.46-373.445-363.02
				C-161.97,798.845-3.636,335.752,379.65,147.783c114.13-55.971,240.302-82.931,367.34-78.493
				c426.638,14.906,760.413,372.848,745.507,799.486c-4.438,127.037-40.138,251.019-103.937,360.964
				c-89.758,154.672-230.369,273.437-397.875,336.06L1001.59,1594.97L1001.59,1594.97z"/>
		</g>
	</g>
</g>
</svg>
