<?xml version="1.0" encoding="utf-8"?>
<svg xmlns="http://www.w3.org/2000/svg" viewBox="0 0 10 10">
  <path fill="#1B56FD" d="M0.884 3.758 2.9 2.549c0.153-0.092 0.347 0.018 0.347 0.196v1.878c0 0.173 0.184 0.283 0.336 0.202l0.702-0.372a0.24 0.24 0 0 0 0.122-0.202V2.126l1.858-1.021C7.543 0.403 9.108 1.327 9.11 2.787l0.006 4.93a0.24 0.24 0 0 1-0.12 0.202L7.107 8.943c-0.152 0.083-0.338-0.028-0.338-0.202l0.012-4.806c0-0.175-0.188-0.286-0.341-0.201L4.475 4.792 4.463 7.805a0.24 0.24 0 0 1-0.116 0.2L2.416 9.103c-0.153 0.087-0.343-0.017-0.342-0.193l0.011-2.766c0.001-0.176-0.188-0.29-0.341-0.204L1.225 6.231c-0.153 0.085-0.341-0.025-0.341-0.2V3.758z"/>
</svg>
