<?xml version="1.0" encoding="iso-8859-1"?>
<!-- Generator: Adobe Illustrator 29.5.0, SVG Export Plug-In . SVG Version: 9.03 Build 0)  -->
<svg version="1.1" id="Capa_1" xmlns="http://www.w3.org/2000/svg" xmlns:xlink="http://www.w3.org/1999/xlink" x="0px" y="0px"
	 viewBox="0 0 150 150" style="enable-background:new 0 0 150 150;" xml:space="preserve">
<path style="fill:#24CB71;" d="M29.521,120.413c0-12.445,10.089-22.534,22.534-22.534h22.534v22.534
	c0,12.445-10.089,22.534-22.534,22.534S29.521,132.858,29.521,120.413z"/>
<path style="fill:#FF7237;" d="M74.589,7.745v45.067h22.534c12.445,0,22.534-10.089,22.534-22.534S109.567,7.745,97.122,7.745
	H74.589z"/>
<path style="fill:#00B6FF;" d="M96.935,97.88c12.445,0,22.534-10.089,22.534-22.534S109.38,52.812,96.935,52.812
	S74.401,62.901,74.401,75.346S84.49,97.88,96.935,97.88z"/>
<path style="fill:#FF3737;" d="M29.521,30.278c0,12.445,10.089,22.534,22.534,22.534h22.534V7.745H52.055
	C39.61,7.745,29.521,17.833,29.521,30.278z"/>
<path style="fill:#874FFF;" d="M29.521,75.346c0,12.445,10.089,22.534,22.534,22.534h22.534V52.812H52.055
	C39.61,52.812,29.521,62.901,29.521,75.346z"/>
</svg>
