<svg width="745" height="745" viewBox="0 0 745 745" fill="none" xmlns="http://www.w3.org/2000/svg">
<path opacity="0.15" d="M695.796 742.95L1134.03 175.556M298.701 527.708L736.932 -39.6862M596.522 689.14L1034.75 121.745M199.427 473.898L637.658 -93.4967M497.248 635.329L935.479 67.9349M100.153 420.087L538.384 -147.307M397.974 581.519L836.206 14.1243M0.879142 366.277L439.11 -201.118M1134.15 176.006L439.233 -200.668M883.731 500.231L188.815 123.557M1071.54 257.062L376.628 -119.612M821.127 581.287L126.21 204.613M1008.94 338.118L314.024 -38.5556M758.522 662.344L63.6058 285.67M946.336 419.175L251.419 42.5008M695.918 743.4L1.00137 366.726" stroke="url(#paint0_radial_20_6374)" stroke-width="2"/>
<defs>
<radialGradient id="paint0_radial_20_6374" cx="0" cy="0" r="1" gradientTransform="matrix(60.3028 -292.46 358.983 50.8064 613.203 401.604)" gradientUnits="userSpaceOnUse">
<stop/>
<stop offset="1" stop-opacity="0"/>
</radialGradient>
</defs>
</svg>
