<?xml version="1.0" encoding="iso-8859-1"?>
<!-- Generator: Adobe Illustrator 29.5.0, SVG Export Plug-In . SVG Version: 9.03 Build 0)  -->
<svg version="1.1" id="Capa_1" xmlns="http://www.w3.org/2000/svg" xmlns:xlink="http://www.w3.org/1999/xlink" x="0px" y="0px"
	 viewBox="0 0 10 10" style="enable-background:new 0 0 10 10;" xml:space="preserve">
<path style="fill:#1B56FD;" d="M0.884,3.758L2.9,2.549c0.153-0.092,0.347,0.018,0.347,0.196v1.878c0,0.173,0.184,0.283,0.336,0.202
	l0.702-0.372c0.075-0.04,0.122-0.118,0.122-0.202V2.126l1.858-1.021C7.543,0.403,9.108,1.327,9.11,2.787l0.006,4.93
	c0,0.084-0.046,0.161-0.12,0.202L7.107,8.943C6.955,9.026,6.769,8.915,6.769,8.741l0.012-4.806c0-0.175-0.188-0.286-0.341-0.201
	L4.475,4.792L4.463,7.805c0,0.083-0.044,0.159-0.116,0.2L2.416,9.103C2.263,9.19,2.073,9.086,2.074,8.91l0.011-2.766
	C2.086,5.968,1.897,5.854,1.744,5.94L1.225,6.231c-0.153,0.085-0.341-0.025-0.341-0.2V3.758z"/>
</svg>
