<?xml version="1.0" encoding="iso-8859-1"?>
<!-- Generator: Adobe Illustrator 29.5.0, SVG Export Plug-In . SVG Version: 9.03 Build 0)  -->
<svg version="1.1" id="Capa_1" xmlns="http://www.w3.org/2000/svg" xmlns:xlink="http://www.w3.org/1999/xlink" x="0px" y="0px"
	 viewBox="0 0 1000 1000" style="enable-background:new 0 0 1000 1000;" xml:space="preserve">
<g>
	<path style="fill:#1B56FD;" d="M922.722,236.053C922.505,61.291,735.147-49.389,581.979,34.763L358.997,156.264l0.519,255.075
		c0,10.144-5.601,19.459-14.561,24.215c0,0-212.786,121.701-263.663,151.379l-0.997,382.283
		c-0.085,21.076,22.656,33.57,40.975,23.149l231.168-131.503c8.608-4.897,13.906-14.054,13.86-23.957l1.531-360.688l235.338-126.696
		c18.301-10.217,40.834,3.048,40.78,24.008l-1.475,575.476c-0.054,20.815,22.197,34.095,40.492,24.166l226.152-122.729
		c8.847-4.801,14.352-14.064,14.339-24.13L922.722,236.053z"/>
	<path style="fill:#32CBF5;" d="M316.369,403.443L133.363,513.532c-7.005,4.214-15.928-0.831-15.928-9.006v-174.85
		c0-3.855,2.11-7.4,5.499-9.238L321.263,205.66l0.199,188.753C321.469,398.109,319.536,401.538,316.369,403.443z"/>
</g>
</svg>
