<svg width="13" height="28" viewBox="0 0 13 28" fill="none" xmlns="http://www.w3.org/2000/svg">
<path d="M12.0773 0.332658C12.2679 0.545723 12.375 0.834662 12.375 1.13594C12.375 1.43721 12.2679 1.72615 12.0773 1.93921L2.33075 12.8306C2.14014 13.0437 2.03306 13.3326 2.03306 13.6339C2.03306 13.9352 2.14014 14.2241 2.33075 14.4372L12.0773 25.3286C12.2625 25.5429 12.365 25.8299 12.3627 26.1278C12.3604 26.4257 12.2534 26.7107 12.0649 26.9213C11.8764 27.132 11.6214 27.2515 11.3548 27.254C11.0882 27.2566 10.8314 27.1421 10.6396 26.9352L0.893067 16.0437C0.321234 15.4045 -3.67742e-06 14.5377 -3.6448e-06 13.6339C-3.61219e-06 12.7301 0.321234 11.8633 0.893067 11.2241L10.6396 0.332658C10.8303 0.119657 11.0889 -6.80975e-08 11.3585 -5.38226e-08C11.6281 -3.95477e-08 11.8866 0.119657 12.0773 0.332658Z" fill="#1B56FD"/>
</svg>
