<svg width="13" height="28" viewBox="0 0 13 28" fill="none" xmlns="http://www.w3.org/2000/svg">
<path d="M0.29769 26.9215C0.107079 26.7084 8.21705e-09 26.4195 1.1183e-08 26.1182C1.4149e-08 25.8169 0.107079 25.528 0.29769 25.3149L10.0442 14.4235C10.2349 14.2105 10.3419 13.9215 10.3419 13.6202C10.3419 13.319 10.2349 13.03 10.0442 12.817L0.297691 1.92555C0.112481 1.71127 0.00999893 1.42427 0.0123155 1.12636C0.0146321 0.828461 0.121563 0.543495 0.310076 0.332839C0.49859 0.122182 0.753603 0.00269025 1.02019 0.000101563C1.28678 -0.00248713 1.54361 0.112033 1.73537 0.318997L11.4819 11.2104C12.0538 11.8496 12.375 12.7164 12.375 13.6202C12.375 14.5241 12.0538 15.3909 11.4819 16.0301L1.73537 26.9215C1.54471 27.1345 1.28614 27.2542 1.01653 27.2542C0.746927 27.2542 0.488359 27.1345 0.29769 26.9215Z" fill="#1B56FD"/>
</svg>
