<?xml version="1.0" encoding="iso-8859-1"?>
<!-- Generator: Adobe Illustrator 29.5.0, SVG Export Plug-In . SVG Version: 9.03 Build 0)  -->
<svg version="1.1" id="Capa_1" xmlns="http://www.w3.org/2000/svg" xmlns:xlink="http://www.w3.org/1999/xlink" x="0px" y="0px"
	 viewBox="0 0 150 150" style="enable-background:new 0 0 150 150;" xml:space="preserve">
<g transform="translate(-175.7 -78)">
	<path style="fill:#61DAFB;" d="M319.786,153.36c0-9.208-11.531-17.934-29.21-23.345c4.08-18.019,2.267-32.355-5.723-36.945
		c-1.842-1.077-3.995-1.587-6.346-1.587v6.318c1.303,0,2.352,0.255,3.23,0.737c3.853,2.21,5.525,10.624,4.221,21.447
		c-0.312,2.663-0.822,5.468-1.445,8.33c-5.553-1.36-11.616-2.408-17.991-3.088c-3.825-5.241-7.791-10.001-11.786-14.166
		c9.236-8.585,17.906-13.288,23.799-13.288v-6.318c-7.791,0-17.991,5.553-28.303,15.186c-10.313-9.576-20.512-15.072-28.303-15.072
		v6.318c5.865,0,14.562,4.675,23.799,13.203c-3.966,4.165-7.933,8.896-11.701,14.138c-6.403,0.68-12.466,1.728-18.019,3.116
		c-0.652-2.833-1.133-5.581-1.473-8.216c-1.332-10.823,0.312-19.237,4.136-21.475c0.85-0.51,1.955-0.737,3.258-0.737v-6.318
		c-2.38,0-4.533,0.51-6.403,1.587c-7.961,4.59-9.746,18.897-5.638,36.86c-17.622,5.44-29.097,14.138-29.097,23.317
		c0,9.208,11.531,17.934,29.21,23.345c-4.08,18.019-2.267,32.355,5.723,36.945c1.842,1.077,3.995,1.587,6.375,1.587
		c7.791,0,17.991-5.553,28.303-15.186c10.313,9.576,20.512,15.072,28.303,15.072c2.38,0,4.533-0.51,6.403-1.587
		c7.961-4.59,9.746-18.897,5.638-36.86C308.312,171.266,319.786,162.539,319.786,153.36L319.786,153.36z M282.899,134.463
		c-1.048,3.655-2.352,7.423-3.825,11.191c-1.162-2.267-2.38-4.533-3.711-6.8c-1.303-2.267-2.691-4.476-4.08-6.63
		C275.306,132.819,279.187,133.556,282.899,134.463L282.899,134.463z M269.923,164.636c-2.21,3.825-4.476,7.451-6.828,10.823
		c-4.221,0.368-8.499,0.567-12.806,0.567c-4.278,0-8.556-0.198-12.749-0.538c-2.352-3.371-4.646-6.97-6.856-10.766
		c-2.153-3.711-4.108-7.48-5.893-11.276c1.757-3.796,3.74-7.593,5.865-11.304c2.21-3.825,4.476-7.451,6.828-10.823
		c4.221-0.368,8.5-0.567,12.806-0.567c4.278,0,8.556,0.198,12.749,0.538c2.352,3.371,4.646,6.97,6.856,10.766
		c2.153,3.711,4.108,7.48,5.893,11.276C274.002,157.128,272.047,160.925,269.923,164.636L269.923,164.636z M279.074,160.953
		c1.53,3.796,2.833,7.593,3.91,11.276c-3.711,0.907-7.621,1.672-11.673,2.267c1.388-2.182,2.777-4.42,4.08-6.715
		C276.694,165.514,277.912,163.219,279.074,160.953L279.074,160.953z M250.345,191.183c-2.635-2.72-5.27-5.751-7.876-9.066
		c2.55,0.113,5.156,0.198,7.791,0.198c2.663,0,5.298-0.057,7.876-0.198C255.587,185.431,252.952,188.463,250.345,191.183z
		 M229.267,174.495c-4.023-0.595-7.905-1.332-11.616-2.238c1.048-3.655,2.352-7.423,3.825-11.191c1.162,2.267,2.38,4.533,3.711,6.8
		C226.518,170.132,227.878,172.342,229.267,174.495z M250.204,115.537c2.635,2.72,5.27,5.751,7.876,9.066
		c-2.55-0.113-5.156-0.198-7.791-0.198c-2.663,0-5.298,0.057-7.876,0.198C244.962,121.288,247.597,118.257,250.204,115.537z
		 M229.238,132.225c-1.388,2.182-2.777,4.42-4.08,6.715c-1.303,2.267-2.522,4.533-3.683,6.8c-1.53-3.796-2.833-7.593-3.91-11.276
		C221.277,133.584,225.187,132.819,229.238,132.225L229.238,132.225z M203.598,167.696c-10.029-4.278-16.517-9.888-16.517-14.336
		c0-4.448,6.488-10.086,16.517-14.336c2.437-1.048,5.1-1.983,7.848-2.861c1.615,5.553,3.74,11.333,6.375,17.254
		c-2.607,5.893-4.703,11.644-6.29,17.169C208.726,169.707,206.063,168.744,203.598,167.696L203.598,167.696z M218.841,208.182
		c-3.853-2.21-5.525-10.624-4.221-21.447c0.312-2.663,0.822-5.468,1.445-8.33c5.553,1.36,11.616,2.408,17.991,3.088
		c3.825,5.241,7.791,10.001,11.786,14.166c-9.236,8.585-17.906,13.288-23.799,13.288
		C220.767,208.918,219.691,208.663,218.841,208.182L218.841,208.182z M286.043,186.593c1.332,10.823-0.312,19.237-4.136,21.475
		c-0.85,0.51-1.955,0.737-3.258,0.737c-5.865,0-14.562-4.675-23.799-13.203c3.966-4.165,7.933-8.896,11.701-14.138
		c6.403-0.68,12.466-1.728,18.019-3.116C285.222,181.21,285.732,183.958,286.043,186.593z M296.951,167.696
		c-2.437,1.048-5.1,1.983-7.848,2.862c-1.615-5.553-3.74-11.333-6.375-17.254c2.607-5.893,4.703-11.644,6.29-17.169
		c2.805,0.878,5.468,1.842,7.961,2.89c10.029,4.278,16.517,9.888,16.517,14.336C313.468,157.808,306.98,163.446,296.951,167.696
		L296.951,167.696z"/>
	<circle style="fill:#61DAFB;" cx="250.26" cy="153.36" r="12.948"/>
</g>
</svg>
