<svg width="1920" height="740" viewBox="0 0 1920 740" fill="none" xmlns="http://www.w3.org/2000/svg">
<path d="M-41.3718 0H-40.7468V740H-41.3718V0Z" fill="url(#paint0_radial_261_62)" fill-opacity="0.3"/>
<path d="M996.881 0H997.506V740H996.881V0Z" fill="url(#paint1_radial_261_62)" fill-opacity="0.3"/>
<path d="M53.0148 0H53.6398V740H53.0148V0Z" fill="url(#paint2_radial_261_62)" fill-opacity="0.3"/>
<path d="M1091.27 0H1091.89V740H1091.27V0Z" fill="url(#paint3_radial_261_62)" fill-opacity="0.3"/>
<path d="M147.401 0H148.026V740H147.401V0Z" fill="url(#paint4_radial_261_62)" fill-opacity="0.3"/>
<path d="M1185.65 0H1186.28V740H1185.65V0Z" fill="url(#paint5_radial_261_62)" fill-opacity="0.3"/>
<path d="M241.788 0H242.413V740H241.788V0Z" fill="url(#paint6_radial_261_62)" fill-opacity="0.3"/>
<path d="M1280.04 0H1280.67V740H1280.04V0Z" fill="url(#paint7_radial_261_62)" fill-opacity="0.3"/>
<path d="M336.175 0H336.8V740H336.175V0Z" fill="url(#paint8_radial_261_62)" fill-opacity="0.3"/>
<path d="M1374.43 0H1375.05V740H1374.43V0Z" fill="url(#paint9_radial_261_62)" fill-opacity="0.3"/>
<path d="M430.561 0H431.186V740H430.561V0Z" fill="url(#paint10_radial_261_62)" fill-opacity="0.3"/>
<path d="M1468.81 0H1469.44V740H1468.81V0Z" fill="url(#paint11_radial_261_62)" fill-opacity="0.3"/>
<path d="M524.948 0H525.573V740H524.948V0Z" fill="url(#paint12_radial_261_62)" fill-opacity="0.3"/>
<path d="M1563.2 0H1563.83V740H1563.2V0Z" fill="url(#paint13_radial_261_62)" fill-opacity="0.3"/>
<path d="M619.334 0H619.959V740H619.334V0Z" fill="url(#paint14_radial_261_62)" fill-opacity="0.3"/>
<path d="M1657.59 0H1658.21V740H1657.59V0Z" fill="url(#paint15_radial_261_62)" fill-opacity="0.3"/>
<path d="M713.721 0H714.346V740H713.721V0Z" fill="url(#paint16_radial_261_62)" fill-opacity="0.3"/>
<path d="M1751.97 0H1752.6V740H1751.97V0Z" fill="url(#paint17_radial_261_62)" fill-opacity="0.3"/>
<path d="M808.108 0H808.733V740H808.108V0Z" fill="url(#paint18_radial_261_62)" fill-opacity="0.3"/>
<path d="M1846.36 0H1846.99V740H1846.36V0Z" fill="url(#paint19_radial_261_62)" fill-opacity="0.3"/>
<path d="M902.494 0H903.119V740H902.494V0Z" fill="url(#paint20_radial_261_62)" fill-opacity="0.3"/>
<path d="M1940.75 0H1941.37V740H1940.75V0Z" fill="url(#paint21_radial_261_62)" fill-opacity="0.3"/>
<path d="M-67 323.125L-67 322.5L1967 322.5V323.125L-67 323.125Z" fill="url(#paint22_radial_261_62)" fill-opacity="0.3"/>
<path d="M-67 228.75L-67 228.125L1967 228.125V228.75L-67 228.75Z" fill="url(#paint23_radial_261_62)" fill-opacity="0.3"/>
<path d="M-67 134.375L-67 133.75L1967 133.75V134.375L-67 134.375Z" fill="url(#paint24_radial_261_62)" fill-opacity="0.3"/>
<path d="M-67 40L-67 39.375L1967 39.375V40L-67 40Z" fill="url(#paint25_radial_261_62)" fill-opacity="0.3"/>
<path d="M-67 700.625L-67 700H1967V700.625H-67Z" fill="url(#paint26_radial_261_62)" fill-opacity="0.3"/>
<path d="M-67 606.25L-67 605.625L1967 605.625V606.25L-67 606.25Z" fill="url(#paint27_radial_261_62)" fill-opacity="0.3"/>
<path d="M-67 511.875L-67 511.25L1967 511.25V511.875L-67 511.875Z" fill="url(#paint28_radial_261_62)" fill-opacity="0.3"/>
<path d="M-67 417.5L-67 416.875L1967 416.875V417.5L-67 417.5Z" fill="url(#paint29_radial_261_62)" fill-opacity="0.3"/>
<defs>
<radialGradient id="paint0_radial_261_62" cx="0" cy="0" r="1" gradientUnits="userSpaceOnUse" gradientTransform="translate(950 370) rotate(90) scale(286.562 787.66)">
<stop stop-color="#D9D9D9"/>
<stop offset="1" stop-color="#D9D9D9" stop-opacity="0"/>
</radialGradient>
<radialGradient id="paint1_radial_261_62" cx="0" cy="0" r="1" gradientUnits="userSpaceOnUse" gradientTransform="translate(950 370) rotate(90) scale(286.562 787.66)">
<stop stop-color="#D9D9D9"/>
<stop offset="1" stop-color="#D9D9D9" stop-opacity="0"/>
</radialGradient>
<radialGradient id="paint2_radial_261_62" cx="0" cy="0" r="1" gradientUnits="userSpaceOnUse" gradientTransform="translate(950 370) rotate(90) scale(286.562 787.66)">
<stop stop-color="#D9D9D9"/>
<stop offset="1" stop-color="#D9D9D9" stop-opacity="0"/>
</radialGradient>
<radialGradient id="paint3_radial_261_62" cx="0" cy="0" r="1" gradientUnits="userSpaceOnUse" gradientTransform="translate(950 370) rotate(90) scale(286.562 787.66)">
<stop stop-color="#D9D9D9"/>
<stop offset="1" stop-color="#D9D9D9" stop-opacity="0"/>
</radialGradient>
<radialGradient id="paint4_radial_261_62" cx="0" cy="0" r="1" gradientUnits="userSpaceOnUse" gradientTransform="translate(950 370) rotate(90) scale(286.562 787.66)">
<stop stop-color="#D9D9D9"/>
<stop offset="1" stop-color="#D9D9D9" stop-opacity="0"/>
</radialGradient>
<radialGradient id="paint5_radial_261_62" cx="0" cy="0" r="1" gradientUnits="userSpaceOnUse" gradientTransform="translate(950 370) rotate(90) scale(286.562 787.66)">
<stop stop-color="#D9D9D9"/>
<stop offset="1" stop-color="#D9D9D9" stop-opacity="0"/>
</radialGradient>
<radialGradient id="paint6_radial_261_62" cx="0" cy="0" r="1" gradientUnits="userSpaceOnUse" gradientTransform="translate(950 370) rotate(90) scale(286.562 787.66)">
<stop stop-color="#D9D9D9"/>
<stop offset="1" stop-color="#D9D9D9" stop-opacity="0"/>
</radialGradient>
<radialGradient id="paint7_radial_261_62" cx="0" cy="0" r="1" gradientUnits="userSpaceOnUse" gradientTransform="translate(950 370) rotate(90) scale(286.562 787.66)">
<stop stop-color="#D9D9D9"/>
<stop offset="1" stop-color="#D9D9D9" stop-opacity="0"/>
</radialGradient>
<radialGradient id="paint8_radial_261_62" cx="0" cy="0" r="1" gradientUnits="userSpaceOnUse" gradientTransform="translate(950 370) rotate(90) scale(286.562 787.66)">
<stop stop-color="#D9D9D9"/>
<stop offset="1" stop-color="#D9D9D9" stop-opacity="0"/>
</radialGradient>
<radialGradient id="paint9_radial_261_62" cx="0" cy="0" r="1" gradientUnits="userSpaceOnUse" gradientTransform="translate(950 370) rotate(90) scale(286.562 787.66)">
<stop stop-color="#D9D9D9"/>
<stop offset="1" stop-color="#D9D9D9" stop-opacity="0"/>
</radialGradient>
<radialGradient id="paint10_radial_261_62" cx="0" cy="0" r="1" gradientUnits="userSpaceOnUse" gradientTransform="translate(950 370) rotate(90) scale(286.562 787.66)">
<stop stop-color="#D9D9D9"/>
<stop offset="1" stop-color="#D9D9D9" stop-opacity="0"/>
</radialGradient>
<radialGradient id="paint11_radial_261_62" cx="0" cy="0" r="1" gradientUnits="userSpaceOnUse" gradientTransform="translate(950 370) rotate(90) scale(286.562 787.66)">
<stop stop-color="#D9D9D9"/>
<stop offset="1" stop-color="#D9D9D9" stop-opacity="0"/>
</radialGradient>
<radialGradient id="paint12_radial_261_62" cx="0" cy="0" r="1" gradientUnits="userSpaceOnUse" gradientTransform="translate(950 370) rotate(90) scale(286.562 787.66)">
<stop stop-color="#D9D9D9"/>
<stop offset="1" stop-color="#D9D9D9" stop-opacity="0"/>
</radialGradient>
<radialGradient id="paint13_radial_261_62" cx="0" cy="0" r="1" gradientUnits="userSpaceOnUse" gradientTransform="translate(950 370) rotate(90) scale(286.562 787.66)">
<stop stop-color="#D9D9D9"/>
<stop offset="1" stop-color="#D9D9D9" stop-opacity="0"/>
</radialGradient>
<radialGradient id="paint14_radial_261_62" cx="0" cy="0" r="1" gradientUnits="userSpaceOnUse" gradientTransform="translate(950 370) rotate(90) scale(286.562 787.66)">
<stop stop-color="#D9D9D9"/>
<stop offset="1" stop-color="#D9D9D9" stop-opacity="0"/>
</radialGradient>
<radialGradient id="paint15_radial_261_62" cx="0" cy="0" r="1" gradientUnits="userSpaceOnUse" gradientTransform="translate(950 370) rotate(90) scale(286.562 787.66)">
<stop stop-color="#D9D9D9"/>
<stop offset="1" stop-color="#D9D9D9" stop-opacity="0"/>
</radialGradient>
<radialGradient id="paint16_radial_261_62" cx="0" cy="0" r="1" gradientUnits="userSpaceOnUse" gradientTransform="translate(950 370) rotate(90) scale(286.562 787.66)">
<stop stop-color="#D9D9D9"/>
<stop offset="1" stop-color="#D9D9D9" stop-opacity="0"/>
</radialGradient>
<radialGradient id="paint17_radial_261_62" cx="0" cy="0" r="1" gradientUnits="userSpaceOnUse" gradientTransform="translate(950 370) rotate(90) scale(286.562 787.66)">
<stop stop-color="#D9D9D9"/>
<stop offset="1" stop-color="#D9D9D9" stop-opacity="0"/>
</radialGradient>
<radialGradient id="paint18_radial_261_62" cx="0" cy="0" r="1" gradientUnits="userSpaceOnUse" gradientTransform="translate(950 370) rotate(90) scale(286.562 787.66)">
<stop stop-color="#D9D9D9"/>
<stop offset="1" stop-color="#D9D9D9" stop-opacity="0"/>
</radialGradient>
<radialGradient id="paint19_radial_261_62" cx="0" cy="0" r="1" gradientUnits="userSpaceOnUse" gradientTransform="translate(950 370) rotate(90) scale(286.562 787.66)">
<stop stop-color="#D9D9D9"/>
<stop offset="1" stop-color="#D9D9D9" stop-opacity="0"/>
</radialGradient>
<radialGradient id="paint20_radial_261_62" cx="0" cy="0" r="1" gradientUnits="userSpaceOnUse" gradientTransform="translate(950 370) rotate(90) scale(286.562 787.66)">
<stop stop-color="#D9D9D9"/>
<stop offset="1" stop-color="#D9D9D9" stop-opacity="0"/>
</radialGradient>
<radialGradient id="paint21_radial_261_62" cx="0" cy="0" r="1" gradientUnits="userSpaceOnUse" gradientTransform="translate(950 370) rotate(90) scale(286.562 787.66)">
<stop stop-color="#D9D9D9"/>
<stop offset="1" stop-color="#D9D9D9" stop-opacity="0"/>
</radialGradient>
<radialGradient id="paint22_radial_261_62" cx="0" cy="0" r="1" gradientUnits="userSpaceOnUse" gradientTransform="translate(950 370) rotate(90) scale(286.562 787.66)">
<stop stop-color="#D9D9D9"/>
<stop offset="1" stop-color="#D9D9D9" stop-opacity="0"/>
</radialGradient>
<radialGradient id="paint23_radial_261_62" cx="0" cy="0" r="1" gradientUnits="userSpaceOnUse" gradientTransform="translate(950 370) rotate(90) scale(286.562 787.66)">
<stop stop-color="#D9D9D9"/>
<stop offset="1" stop-color="#D9D9D9" stop-opacity="0"/>
</radialGradient>
<radialGradient id="paint24_radial_261_62" cx="0" cy="0" r="1" gradientUnits="userSpaceOnUse" gradientTransform="translate(950 370) rotate(90) scale(286.562 787.66)">
<stop stop-color="#D9D9D9"/>
<stop offset="1" stop-color="#D9D9D9" stop-opacity="0"/>
</radialGradient>
<radialGradient id="paint25_radial_261_62" cx="0" cy="0" r="1" gradientUnits="userSpaceOnUse" gradientTransform="translate(950 370) rotate(90) scale(286.562 787.66)">
<stop stop-color="#D9D9D9"/>
<stop offset="1" stop-color="#D9D9D9" stop-opacity="0"/>
</radialGradient>
<radialGradient id="paint26_radial_261_62" cx="0" cy="0" r="1" gradientUnits="userSpaceOnUse" gradientTransform="translate(950 370) rotate(90) scale(286.562 787.66)">
<stop stop-color="#D9D9D9"/>
<stop offset="1" stop-color="#D9D9D9" stop-opacity="0"/>
</radialGradient>
<radialGradient id="paint27_radial_261_62" cx="0" cy="0" r="1" gradientUnits="userSpaceOnUse" gradientTransform="translate(950 370) rotate(90) scale(286.562 787.66)">
<stop stop-color="#D9D9D9"/>
<stop offset="1" stop-color="#D9D9D9" stop-opacity="0"/>
</radialGradient>
<radialGradient id="paint28_radial_261_62" cx="0" cy="0" r="1" gradientUnits="userSpaceOnUse" gradientTransform="translate(950 370) rotate(90) scale(286.562 787.66)">
<stop stop-color="#D9D9D9"/>
<stop offset="1" stop-color="#D9D9D9" stop-opacity="0"/>
</radialGradient>
<radialGradient id="paint29_radial_261_62" cx="0" cy="0" r="1" gradientUnits="userSpaceOnUse" gradientTransform="translate(950 370) rotate(90) scale(286.562 787.66)">
<stop stop-color="#D9D9D9"/>
<stop offset="1" stop-color="#D9D9D9" stop-opacity="0"/>
</radialGradient>
</defs>
</svg>
